<svg xmlns="http://www.w3.org/2000/svg" width="600" height="400" viewBox="0 0 600 400">
  <rect width="600" height="400" fill="#ffffff"/>
  <rect x="0" y="0" width="600" height="1" fill="#f1f5f9"/>
  <rect x="0" y="0" width="600" height="58" fill="#ffffff"/>
  <rect x="0" y="57" width="600" height="1" fill="#f1f5f9"/>
  <text x="32" y="33" fill="#0f172a" font-family="system-ui, sans-serif" font-size="11" font-weight="500" letter-spacing="4">SARAH MITCHELL</text>
  <text x="440" y="33" fill="#94a3b8" font-family="system-ui" font-size="11" text-anchor="middle">About</text>
  <text x="510" y="33" fill="#94a3b8" font-family="system-ui" font-size="11" text-anchor="middle">Programs</text>
  <text x="32" y="100" fill="#94a3b8" font-family="system-ui" font-size="9" letter-spacing="5">NMLS #123456 · SUMMIT LENDING</text>
  <text x="32" y="138" fill="#0f172a" font-family="system-ui" font-size="24" font-weight="300">Home loans</text>
  <text x="32" y="170" fill="#0f172a" font-family="system-ui" font-size="24" font-weight="300">made personal.</text>
  <rect x="32" y="190" width="200" height="1" fill="#94a3b8" opacity="0.3"/>
  <text x="32" y="216" fill="#94a3b8" font-family="system-ui" font-size="11">With over 10 years of experience...</text>
  <text x="32" y="256" fill="#0f172a" font-family="system-ui" font-size="10" font-weight="500" letter-spacing="3">GET STARTED →</text>
  <rect x="32" y="262" width="90" height="2" fill="#0f172a"/>
  <rect x="380" y="70" width="190" height="240" fill="#f8fafc"/>
  <circle cx="475" cy="190" r="80" fill="#e2e8f0" opacity="0.6"/>
  <rect x="32" y="310" width="80" height="70" fill="#f8fafc"/>
  <rect x="125" y="310" width="80" height="70" fill="#f8fafc"/>
  <rect x="220" y="310" width="80" height="70" fill="#f8fafc"/>
  <rect x="315" y="310" width="80" height="70" fill="#f8fafc"/>
</svg>
