<svg xmlns="http://www.w3.org/2000/svg" width="600" height="400" viewBox="0 0 600 400">
  <rect width="600" height="400" fill="#f8f7f4"/>
  <rect x="0" y="0" width="600" height="8" fill="#b7872a"/>
  <rect x="0" y="8" width="600" height="56" fill="#0a1628"/>
  <text x="24" y="42" fill="#c8a94e" font-family="Georgia, serif" font-size="16" font-weight="bold">Classic</text>
  <text x="550" y="42" fill="#c8a94e" font-family="Georgia, serif" font-size="11" text-anchor="end">LoanGraphs</text>
  <rect x="0" y="64" width="600" height="160" fill="#0a1628"/>
  <rect x="40" y="90" width="8" height="60" fill="#c8a94e"/>
  <rect x="60" y="94" width="180" height="16" rx="2" fill="#c8a94e" opacity="0.8"/>
  <rect x="60" y="120" width="260" height="10" rx="2" fill="#4a5568" opacity="0.6"/>
  <rect x="60" y="140" width="220" height="10" rx="2" fill="#4a5568" opacity="0.6"/>
  <rect x="60" y="166" width="110" height="36" fill="#c8a94e"/>
  <text x="115" y="189" fill="#0a1628" font-family="Georgia" font-size="10" text-anchor="middle" font-weight="bold">CONTACT</text>
  <rect x="390" y="78" width="170" height="140" fill="#1a2744" stroke="#c8a94e" stroke-width="1" opacity="0.8"/>
  <circle cx="475" cy="150" r="45" fill="#0a1628" stroke="#c8a94e" stroke-width="1"/>
  <rect x="0" y="224" width="600" height="10" fill="#c8a94e" opacity="0.8"/>
  <rect x="40" y="250" width="160" height="70" rx="0" fill="#ffffff" stroke="#e2d5b0" stroke-width="1"/>
  <rect x="220" y="250" width="160" height="70" rx="0" fill="#ffffff" stroke="#e2d5b0" stroke-width="1"/>
  <rect x="400" y="250" width="160" height="70" rx="0" fill="#ffffff" stroke="#e2d5b0" stroke-width="1"/>
  <rect x="40" y="344" width="520" height="40" fill="#0a1628"/>
</svg>
