<svg xmlns="http://www.w3.org/2000/svg" width="600" height="400" viewBox="0 0 600 400">
  <rect width="600" height="400" fill="#f0fdf4"/>
  <rect x="0" y="0" width="600" height="16" fill="#14532d"/>
  <rect x="0" y="16" width="600" height="52" fill="#ffffff"/>
  <rect x="0" y="67" width="600" height="1" fill="#d1fae5"/>
  <rect x="28" y="26" width="36" height="36" fill="#166534"/>
  <text x="46" y="49" fill="#ffffff" font-family="system-ui" font-size="14" font-weight="bold" text-anchor="middle">SM</text>
  <text x="76" y="38" fill="#0f172a" font-family="system-ui" font-size="13" font-weight="bold">Sarah Mitchell</text>
  <text x="76" y="54" fill="#6b7280" font-family="system-ui" font-size="10">Mortgage Loan Officer</text>
  <text x="340" y="46" fill="#4b5563" font-family="system-ui" font-size="11" text-anchor="middle">Programs</text>
  <text x="420" y="46" fill="#4b5563" font-family="system-ui" font-size="11" text-anchor="middle">Reviews</text>
  <rect x="480" y="24" width="100" height="28" fill="#166534"/>
  <text x="530" y="42" fill="#ffffff" font-family="system-ui" font-size="10" text-anchor="middle">Use Template</text>
  <rect x="0" y="68" width="600" height="180" fill="#166534"/>
  <rect x="30" y="88" width="50" height="2" fill="#6ee7b7"/>
  <text x="30" y="104" fill="#6ee7b7" font-family="system-ui" font-size="9" font-weight="600" letter-spacing="3">MORTGAGE PROFESSIONAL</text>
  <text x="30" y="132" fill="#ffffff" font-family="system-ui" font-size="22" font-weight="bold">Trusted Mortgage</text>
  <text x="30" y="158" fill="#ffffff" font-family="system-ui" font-size="22" font-weight="bold">Guidance.</text>
  <rect x="30" y="184" width="120" height="38" fill="#ffffff"/>
  <text x="90" y="207" fill="#166534" font-family="system-ui" font-size="11" text-anchor="middle" font-weight="bold">Schedule Call</text>
  <rect x="165" y="184" width="120" height="38" fill="none" stroke="#6ee7b7" stroke-width="1.5"/>
  <text x="225" y="207" fill="#6ee7b7" font-family="system-ui" font-size="11" text-anchor="middle">Call Now</text>
  <rect x="400" y="76" width="170" height="164" fill="#0d4724" stroke="#6ee7b7" stroke-width="1" opacity="0.5"/>
  <circle cx="485" cy="158" r="55" fill="#166534" opacity="0.8"/>
  <rect x="0" y="248" width="600" height="16" fill="#f0fdf4" opacity="0.5"/>
  <rect x="30" y="274" width="160" height="80" rx="0" fill="#ffffff" stroke="#d1fae5" stroke-width="1"/>
  <rect x="215" y="274" width="160" height="80" rx="0" fill="#ffffff" stroke="#d1fae5" stroke-width="1"/>
  <rect x="400" y="274" width="160" height="80" rx="0" fill="#ffffff" stroke="#d1fae5" stroke-width="1"/>
  <rect x="0" y="374" width="600" height="26" fill="#166534"/>
</svg>
