<svg xmlns="http://www.w3.org/2000/svg" width="600" height="400" viewBox="0 0 600 400">
  <defs>
    <linearGradient id="g1" x1="0%" y1="0%" x2="100%" y2="100%">
      <stop offset="0%" style="stop-color:#eff6ff"/>
      <stop offset="100%" style="stop-color:#eef2ff"/>
    </linearGradient>
    <linearGradient id="g2" x1="0%" y1="0%" x2="100%" y2="0%">
      <stop offset="0%" style="stop-color:#3b82f6"/>
      <stop offset="100%" style="stop-color:#6366f1"/>
    </linearGradient>
  </defs>
  <rect width="600" height="400" fill="url(#g1)"/>
  <rect x="0" y="0" width="600" height="60" fill="rgba(255,255,255,0.9)"/>
  <circle cx="36" cy="30" r="12" fill="url(#g2)"/>
  <text x="56" y="35" fill="#0f172a" font-family="system-ui, sans-serif" font-size="14" font-weight="600">Modern</text>
  <rect x="480" y="18" width="100" height="28" rx="14" fill="url(#g2)"/>
  <text x="530" y="36" fill="#ffffff" font-family="system-ui" font-size="11" text-anchor="middle">Use Template</text>
  <rect x="40" y="90" width="80" height="20" rx="10" fill="url(#g2)" opacity="0.2"/>
  <rect x="40" y="125" width="260" height="16" rx="4" fill="#0f172a" opacity="0.8"/>
  <rect x="40" y="152" width="220" height="12" rx="3" fill="#64748b" opacity="0.5"/>
  <rect x="40" y="172" width="200" height="12" rx="3" fill="#64748b" opacity="0.4"/>
  <rect x="40" y="202" width="120" height="40" rx="20" fill="url(#g2)"/>
  <text x="100" y="226" fill="#ffffff" font-family="system-ui" font-size="11" text-anchor="middle">Get Started →</text>
  <rect x="390" y="75" width="175" height="210" rx="24" fill="url(#g2)" opacity="0.1"/>
  <rect x="400" y="85" width="155" height="190" rx="18" fill="white" opacity="0.6"/>
  <circle cx="477" cy="185" r="55" fill="url(#g2)" opacity="0.2"/>
  <rect x="20" y="310" width="130" height="70" rx="16" fill="white" opacity="0.8"/>
  <rect x="165" y="310" width="130" height="70" rx="16" fill="white" opacity="0.8"/>
  <rect x="310" y="310" width="130" height="70" rx="16" fill="white" opacity="0.8"/>
  <rect x="455" y="310" width="130" height="70" rx="16" fill="white" opacity="0.8"/>
</svg>
